PathFileType	4	(X/Y/Z)	C:\Users\Basilio\Documents\Thesis Gigler\squatting_fais\c3dfiles\041\SLS_pre_back4\markers_experimental.trc
DataRate	CameraRate	NumFrames	NumMarkers	Units	OrigDataRate	OrigDataStartFrame	OrigNumFrames
200.000000	200.000000	4	64	mm	200.000000	159	1272
Frame#	Time	FHD			LBHD			RBHD			C7			T10			CLAV			LSHO			LUUPA			LMUPA			LDUPA			LLEP			LMEP			LRAD			LUL			LRFIN			RSHO			RUPA1			RMUPA			RDUPA			RLEP			RMEP			RRAD			RUL			RUFIN			LASI			RASI			USACR			LSACR			RSACR			LTHI1			LTHI2			LTHI3			LTHI4			LLFC			LMFC			LTIB1			LTIB2			LTIB3			LTIB4			LLMAL			LMMAL			LHEE			LMT1			LMT2			LMT5			RTHI			RTHI2			RTHI3			RTHI4			RLFC			RMFC			RTIB1			RTIB2			RTIB3			RTIB4			RLMAL			RMMAL			RHEE			RMT1			RMT2			RMT5			*61			*62			*63			
		X1	Y1	Z1	X2	Y2	Z2	X3	Y3	Z3	X4	Y4	Z4	X5	Y5	Z5	X6	Y6	Z6	X7	Y7	Z7	X8	Y8	Z8	X9	Y9	Z9	X10	Y10	Z10	X11	Y11	Z11	X12	Y12	Z12	X13	Y13	Z13	X14	Y14	Z14	X15	Y15	Z15	X16	Y16	Z16	X17	Y17	Z17	X18	Y18	Z18	X19	Y19	Z19	X20	Y20	Z20	X21	Y21	Z21	X22	Y22	Z22	X23	Y23	Z23	X24	Y24	Z24	X25	Y25	Z25	X26	Y26	Z26	X27	Y27	Z27	X28	Y28	Z28	X29	Y29	Z29	X30	Y30	Z30	X31	Y31	Z31	X32	Y32	Z32	X33	Y33	Z33	X34	Y34	Z34	X35	Y35	Z35	X36	Y36	Z36	X37	Y37	Z37	X38	Y38	Z38	X39	Y39	Z39	X40	Y40	Z40	X41	Y41	Z41	X42	Y42	Z42	X43	Y43	Z43	X44	Y44	Z44	X45	Y45	Z45	X46	Y46	Z46	X47	Y47	Z47	X48	Y48	Z48	X49	Y49	Z49	X50	Y50	Z50	X51	Y51	Z51	X52	Y52	Z52	X53	Y53	Z53	X54	Y54	Z54	X55	Y55	Z55	X56	Y56	Z56	X57	Y57	Z57	X58	Y58	Z58	X59	Y59	Z59	X60	Y60	Z60	X61	Y61	Z61	X62	Y62	Z62	X63	Y63	Z63	X64	Y64	Z64	

160	0.795	-153.7896118164063	1765.221923828125	-1114.216918945313	-328.4520263671876	1688.557250976563	-1185.825805664063	-305.9243469238282	1693.918823242188	-1034.103759765625	-362.5958251953126	1546.69384765625	-1120.904174804688	-406.1954345703126	1239.541870117188	-1099.021240234375	-204.5357818603516	1485.10546875	-1123.182983398438	-288.3035888671876	1555.454833984375	-1262.089721679688	-189.959213256836	1533.691528320313	-1396.921997070313	-146.9938354492188	1552.16748046875	-1383.04345703125	-137.5437927246094	1534.139526367188	-1441.931518554688	-91.31795501708986	1530.700927734375	-1461.847045898438	-51.27587509155275	1462.063842773438	-1429.818969726563	187.9766235351563	1564.203491210938	-1478.210083007813	165.4310760498047	1568.03515625	-1547.939575195313	242.3174438476563	1615.104736328125	-1491.722900390625	-279.0362243652344	1570.67041015625	-996.5454101562502	-141.5641174316407	1557.337890625	-867.0351562500002	-121.4648742675782	1586.67626953125	-903.063903808594	-75.72901153564455	1582.6376953125	-865.5948486328127	-31.19007682800294	1590.500122070313	-862.2586669921877	-6.807428359985353	1511.707641601563	-886.2052001953127	234.1424560546876	1602.53662109375	-930.805114746094	232.0533294677735	1623.486206054688	-859.4395751953127	305.3111877441407	1633.512451171875	-942.6892089843752	-242.6941986083985	1038.742431640625	-1191.733642578125	-262.3309936523438	1036.661499023438	-965.813903808594	-422.5930480957032	1129.034545898438	-1095.309448242188	-437.8189086914064	1104.351806640625	-1123.45703125	-446.062225341797	1104.828857421875	-1069.66650390625	-339.3710021972657	831.9253540039065	-1253.08740234375	-299.4739685058594	758.9033813476564	-1236.37109375	-252.9197387695313	767.2191162109376	-1222.51611328125	-323.4502563476563	704.7166137695314	-1224.031860351563	-299.9523925781251	529.1813964843751	-1184.835205078125	-310.5469360351563	523.4582519531251	-1066.257446289063	-289.6937255859376	342.6721496582032	-1108.694702148438	-332.9301147460938	296.7877807617188	-1172.09375	-296.3994445800782	293.1169433593751	-1140.725341796875	-311.1495971679688	219.5447235107422	-1102.190185546875	-372.7336120605469	126.7435531616211	-1137.153442382813	-343.6409912109376	137.496566772461	-1053.629028320313	-441.6312255859376	111.7908401489258	-1098.149658203125	-239.0784912109376	62.56766891479494	-1051.039184570313	-227.311508178711	54.5360450744629	-1094.75439453125	-270.1132507324219	39.96005249023438	-1152.4287109375	-385.0374755859376	784.580261230469	-887.9188232421877	-344.7951660156251	732.2817382812501	-876.6773071289065	-311.6986083984376	734.6676025390626	-877.5622558593752	-368.0930175781251	651.3905029296876	-887.9030761718752	-373.1559448242188	554.6083374023439	-885.0667724609377	-353.0195617675782	513.1750488281251	-991.663757324219	-483.4494018554689	435.4532165527345	-891.6201782226565	-590.6779785156251	464.869598388672	-907.0007324218752	-570.3023681640626	425.5716552734376	-892.723327636719	-593.8450317382814	375.1011047363282	-916.8002929687502	-726.6515502929689	362.3553161621094	-925.6340332031252	-677.5625000000001	332.1679077148438	-989.220397949219	-759.7559814453126	394.338104248047	-995.3875732421877	-699.0761718750001	189.276596069336	-963.6936035156252	-713.1287841796876	190.0488586425782	-913.5076904296877	-762.4282836914064	226.7715606689454	-886.5216064453127	-4216.901367187501	853.1245117187502	-3944.542724609376	nan	nan	nan	nan	nan	nan	
161	0.8	-153.7981567382813	1765.052124023438	-1114.189208984375	-328.4377746582032	1688.523193359375	-1185.84326171875	-305.8641662597657	1693.84423828125	-1034.142456054688	-362.4951171875001	1546.630737304688	-1120.982299804688	-406.2341918945314	1239.549682617188	-1098.986206054688	-204.3152770996094	1484.798706054688	-1123.2509765625	-288.2588806152344	1555.442016601563	-1262.089721679688	-189.8013305664063	1533.7646484375	-1396.814331054688	-146.8056945800782	1552.241333007813	-1382.92822265625	-137.347412109375	1534.246948242188	-1441.7890625	-91.04334259033205	1530.765747070313	-1461.692993164063	-51.01153564453126	1462.145751953125	-1429.776245117188	188.3391265869141	1564.383544921875	-1477.884399414063	165.6716613769532	1568.206909179688	-1547.669555664063	242.6250610351563	1615.208984375	-1491.409423828125	-278.8735046386719	1570.62158203125	-996.612243652344	-141.2955780029297	1557.511108398438	-867.0555419921877	-121.3779373168946	1586.67333984375	-903.1226196289065	-75.48016357421876	1582.705932617188	-865.7551269531252	-30.93853378295899	1590.507690429688	-862.4876098632815	-6.800111770629885	1511.672119140625	-886.2038574218752	234.3393554687501	1602.308837890625	-930.922302246094	232.1972351074219	1623.475341796875	-859.6140747070315	305.5088806152344	1633.35205078125	-942.7820434570315	-242.9861907958985	1038.699462890625	-1191.715454101563	-262.3567810058594	1036.572143554688	-965.858581542969	-422.776092529297	1129.16796875	-1095.262817382813	-438.1051330566407	1104.487548828125	-1123.369873046875	-446.2514038085939	1104.80517578125	-1069.552612304688	-339.5615539550782	831.949890136719	-1253.171997070313	-299.5777893066407	758.9120483398439	-1236.592895507813	-252.9977569580079	767.2183837890626	-1222.694091796875	-323.4573974609376	704.7130126953126	-1224.181396484375	-299.9401855468751	529.2136840820314	-1185.0126953125	-310.2463684082032	523.3956298828126	-1066.466430664063	-289.6288757324219	342.6324157714844	-1108.938354492188	-333.0048828125001	296.7789306640626	-1172.267333984375	-296.9902648925782	293.2290039062501	-1140.941040039063	-311.0156250000001	219.4540557861329	-1102.432861328125	-372.7724914550782	126.7564849853516	-1137.336303710938	-343.5578918457032	137.6395263671875	-1053.865966796875	-441.5867614746095	111.7970733642578	-1098.19140625	-239.0176391601563	62.75404357910158	-1051.117553710938	-227.3322143554688	54.48234176635744	-1094.797607421875	-270.1564636230469	39.86585998535157	-1152.479248046875	-385.123260498047	784.516784667969	-887.9468383789065	-344.8227844238282	732.2507934570314	-876.6784667968752	-311.7620849609376	734.6041870117189	-877.5361328125002	-368.1951904296876	651.3303833007814	-887.9667968750002	-373.2612304687501	554.5009765625001	-885.1512451171877	-353.0835876464844	513.0876464843751	-991.6773071289065	-483.5275878906251	435.3836975097657	-891.6992797851565	-590.7736816406251	464.6786499023439	-907.087341308594	-570.3775634765626	425.3439331054689	-892.7974853515627	-593.9408569335939	374.9325866699219	-916.9595336914065	-726.7064819335939	362.0975952148438	-925.6658935546877	-677.5767822265626	331.9978332519532	-989.4141845703127	-759.8017578125001	393.824432373047	-995.3220825195315	-699.0261840820314	189.0260162353516	-963.855651855469	-713.0232543945314	189.5977478027344	-913.7173461914065	-762.3833007812501	226.4192962646485	-886.6460571289065	-4216.861328125001	853.091003417969	-3944.700195312501	nan	nan	nan	nan	nan	nan	
162	0.805	-153.707275390625	1764.989990234375	-1114.214599609375	-328.2635803222657	1688.427001953125	-1185.92333984375	-306.0462341308594	1693.613647460938	-1033.884399414063	-362.3716125488282	1546.579345703125	-1121.0244140625	-406.2560424804689	1239.538818359375	-1098.939453125	-204.303451538086	1484.747802734375	-1123.257934570313	-288.1470336914063	1555.377685546875	-1262.112060546875	-189.4738159179688	1533.745727539063	-1396.70458984375	-146.4563751220703	1552.207275390625	-1382.786376953125	-137.1313934326172	1534.32470703125	-1441.674926757813	-90.81655120849611	1530.847778320313	-1461.502563476563	-50.79162597656251	1462.25	-1429.492797851563	188.9279327392578	1564.5966796875	-1477.702392578125	165.8686218261719	1568.397705078125	-1547.410278320313	242.9089660644532	1615.360595703125	-1491.051513671875	-278.7508850097657	1570.590209960938	-996.7220458984377	-141.1307373046875	1557.604858398438	-867.194763183594	-121.0224914550782	1586.740600585938	-903.2283325195315	-75.44427490234376	1582.721923828125	-865.8621215820315	-30.80624771118165	1590.497436523438	-862.5398559570315	-6.732002258300783	1511.68603515625	-886.2770996093752	234.4199676513672	1602.22607421875	-930.973571777344	232.4101867675782	1623.508056640625	-859.777526855469	305.7878723144532	1633.227661132813	-942.9748535156252	-242.7132568359376	1038.450439453125	-1191.714233398438	-262.3253479003907	1036.480590820313	-965.913513183594	-422.8077392578126	1129.165893554688	-1095.181640625	-437.966278076172	1104.38134765625	-1123.170288085938	-446.2746887207032	1104.811889648438	-1069.445556640625	-339.7206726074219	831.971862792969	-1253.210083007813	-299.6726074218751	758.9335937500001	-1236.760620117188	-253.1202087402344	767.2804565429689	-1222.857666015625	-323.5434875488282	704.7299194335939	-1224.291748046875	-299.7228698730469	529.2112426757814	-1185.18994140625	-309.9424133300782	523.3732910156251	-1066.674682617188	-289.5783691406251	342.6104125976563	-1109.139770507813	-333.0309143066407	296.7500610351563	-1172.853515625	-296.5155029296876	293.1614990234376	-1141.314575195313	-310.9104309082032	219.4863281250001	-1102.754516601563	-372.8037414550782	126.7668151855469	-1137.495239257813	-343.4905395507813	137.7194976806641	-1054.0322265625	-441.5862731933595	111.8211441040039	-1098.293701171875	-238.9830017089844	62.83376693725587	-1051.21728515625	-227.2589874267579	54.41109085083009	-1094.821044921875	-270.0990905761719	39.67734146118165	-1152.457275390625	-385.2264404296876	784.4605102539065	-887.9553222656252	-344.8652954101563	732.2143554687501	-876.7238769531252	-311.8189697265626	734.5259399414064	-877.5900878906252	-368.3376770019532	651.2387084960939	-887.9663696289065	-373.4114379882813	554.4021606445314	-885.2346191406252	-353.2232360839844	513.0060424804689	-991.7424316406252	-483.6175842285157	435.2906799316407	-891.7901000976565	-590.8907470703126	464.481170654297	-907.1936035156252	-570.4508666992189	425.1518859863282	-892.9053344726565	-593.9822998046876	374.8266601562501	-917.082946777344	-726.7545166015626	361.8186340332032	-925.773620605469	-677.6156616210939	331.6997375488282	-989.6179809570315	-759.8079833984376	393.6202087402345	-995.5944824218752	-699.0410766601564	188.8757934570313	-964.1021118164065	-712.9197998046876	189.3775939941407	-913.8422851562502	-762.3318481445314	226.1510314941407	-886.8223266601565	-4217.012207031251	853.191345214844	-3944.792724609376	nan	nan	nan	nan	nan	nan	
163	0.8100000000000001	-153.7413024902344	1764.961181640625	-1114.287231445313	-328.2170410156251	1688.397827148438	-1185.97265625	-305.9078674316407	1693.553833007813	-1033.906372070313	-362.2720031738282	1546.571411132813	-1121.060180664063	-406.2532958984376	1239.508422851563	-1098.837280273438	-204.2992858886719	1484.732543945313	-1123.303955078125	-288.1115722656251	1555.334228515625	-1262.149047851563	-189.3385467529297	1533.801147460938	-1396.600219726563	-146.3686065673828	1552.307373046875	-1382.626831054688	-136.9076843261719	1534.4296875	-1441.57177734375	-90.51089477539064	1530.8759765625	-1461.341918945313	-50.44720840454103	1462.538818359375	-1428.922973632813	189.0507965087891	1564.66259765625	-1477.547241210938	166.0753784179688	1568.604248046875	-1547.153930664063	243.093978881836	1615.585327148438	-1490.753173828125	-278.5864868164063	1570.588256835938	-996.7857666015627	-141.0372619628907	1557.676391601563	-867.2725219726565	-120.8891143798828	1586.729125976563	-903.3820800781252	-75.38214111328126	1582.791748046875	-865.9102172851565	-30.70830917358399	1590.558959960938	-862.649597167969	-6.342509746551515	1511.810913085938	-886.6116333007815	234.6140899658204	1602.23291015625	-931.1782226562502	232.5448455810547	1623.529174804688	-859.9671020507815	305.9708251953126	1633.136962890625	-943.1157226562502	-242.9617919921876	1038.34619140625	-1191.720947265625	-262.3691406250001	1036.31494140625	-965.8239746093752	-422.945526123047	1129.179321289063	-1095.054443359375	-438.1083374023439	1104.37646484375	-1123.044921875	-446.3706359863282	1104.810791015625	-1069.28369140625	-339.9583740234376	831.949645996094	-1253.29150390625	-299.7756042480469	759.0158081054689	-1236.983032226563	-253.2557373046876	767.3629760742189	-1223.184936523438	-323.5666809082032	704.7169799804689	-1224.455078125	-300.4721679687501	529.5816040039064	-1186.121704101563	-309.7152404785157	523.3216552734376	-1066.882568359375	-289.5247802734376	342.6351623535157	-1109.27099609375	-333.0217895507813	296.8140563964844	-1171.970092773438	-296.4895935058594	293.2371215820313	-1141.664916992188	-310.8100891113282	219.462875366211	-1103.00146484375	-372.7761230468751	126.7213211059571	-1137.596557617188	-343.4968566894532	137.8019104003907	-1054.14404296875	-441.6180419921876	111.8142700195313	-1098.337524414063	-238.997055053711	62.88986206054689	-1051.219970703125	-227.2717285156251	54.44980239868165	-1094.847534179688	-270.1025390625001	39.59112930297852	-1152.487060546875	-385.299041748047	784.3629150390627	-888.0089111328127	-344.9095458984376	732.1646728515626	-876.6802368164065	-311.8980102539063	734.4434814453126	-877.6277465820315	-368.5445556640626	651.1514282226564	-888.0022583007815	-373.5762634277344	554.3438720703126	-885.3109130859377	-353.2807312011719	512.9440307617189	-991.8283691406252	-483.6504516601564	435.1536865234376	-891.8091430664065	-591.0020751953126	464.3277282714845	-907.3734130859377	-570.4975585937501	424.9952697753907	-893.0404052734377	-593.9714355468751	374.6738891601563	-917.249206542969	-726.8085327148439	361.4736328125001	-926.0083007812502	-677.6945190429689	331.4909973144532	-989.746765136719	-759.7478027343751	393.1935424804689	-995.7192993164065	-698.8892211914064	188.676010131836	-964.3071899414065	-712.8994140625001	189.1496734619141	-914.0830688476565	-762.2536621093751	225.9042968750001	-886.9682617187502	-4216.833007812501	853.099304199219	-3944.729736328126	nan	nan	nan	nan	nan	nan	
